<svg width="16" height="16" viewBox="0 0 16 16" fill="none" xmlns="http://www.w3.org/2000/svg">
<path d="M12.2189 15.0014C11.6089 15.0014 10.752 14.7808 9.46886 14.0639C7.90854 13.1889 6.70167 12.3811 5.14979 10.8333C3.65354 9.33798 2.92542 8.36986 1.90636 6.51548C0.755105 4.42173 0.951355 3.32423 1.17073 2.85517C1.43198 2.29454 1.81761 1.95923 2.31604 1.62642C2.59915 1.44093 2.89875 1.28192 3.21104 1.15142C3.24229 1.13798 3.27136 1.12517 3.29729 1.11361C3.45198 1.04392 3.68636 0.938607 3.98323 1.05111C4.18136 1.12548 4.35823 1.27767 4.63511 1.55111C5.20292 2.11111 5.97886 3.35829 6.26511 3.97079C6.45729 4.38361 6.58448 4.65611 6.58479 4.96173C6.58479 5.31954 6.40479 5.59548 6.18636 5.89329C6.14542 5.94923 6.10479 6.00267 6.06542 6.05455C5.82761 6.36705 5.77542 6.45736 5.80979 6.61861C5.87948 6.94267 6.39917 7.90736 7.25323 8.75955C8.10729 9.61173 9.04417 10.0986 9.36948 10.168C9.53761 10.2039 9.62979 10.1495 9.95229 9.9033C9.99854 9.86798 10.046 9.83142 10.0957 9.79486C10.4289 9.54705 10.692 9.37173 11.0414 9.37173H11.0432C11.3473 9.37173 11.6076 9.50361 12.0389 9.72111C12.6014 10.0049 13.886 10.7708 14.4495 11.3392C14.7235 11.6155 14.8764 11.7917 14.951 11.9895C15.0635 12.2874 14.9576 12.5208 14.8885 12.677C14.877 12.703 14.8642 12.7314 14.8507 12.763C14.7192 13.0747 14.5592 13.3737 14.3729 13.6561C14.0407 14.153 13.7042 14.5377 13.1423 14.7992C12.8538 14.9357 12.538 15.0048 12.2189 15.0014Z" fill="#626262"/>
</svg>
