<svg width="16" height="16" viewBox="0 0 16 16" fill="none" xmlns="http://www.w3.org/2000/svg">
<path d="M8.00025 7.00123C8.55294 7.00123 9.00098 6.55318 9.00098 6.00049C9.00098 5.4478 8.55294 4.99976 8.00025 4.99976C7.44756 4.99976 6.99951 5.4478 6.99951 6.00049C6.99951 6.55318 7.44756 7.00123 8.00025 7.00123Z" fill="#626262"/>
<path d="M7.99976 1C5.24288 1 2.99976 3.14531 2.99976 5.78125C2.99976 7.03656 3.57194 8.70594 4.70038 10.7431C5.60663 12.3787 6.65507 13.8578 7.20038 14.5937C7.29253 14.7195 7.41301 14.8218 7.55205 14.8922C7.6911 14.9627 7.8448 14.9995 8.00069 14.9995C8.15659 14.9995 8.31029 14.9627 8.44934 14.8922C8.58838 14.8218 8.70886 14.7195 8.80101 14.5937C9.34538 13.8578 10.3948 12.3787 11.301 10.7431C12.4276 8.70656 12.9998 7.03719 12.9998 5.78125C12.9998 3.14531 10.7566 1 7.99976 1ZM7.99976 8C7.60419 8 7.21751 7.8827 6.88862 7.66294C6.55972 7.44318 6.30337 7.13082 6.152 6.76537C6.00062 6.39991 5.96102 5.99778 6.03819 5.60982C6.11536 5.22186 6.30584 4.86549 6.58554 4.58579C6.86525 4.30608 7.22161 4.1156 7.60958 4.03843C7.99754 3.96126 8.39967 4.00087 8.76512 4.15224C9.13058 4.30362 9.44293 4.55996 9.6627 4.88886C9.88246 5.21776 9.99976 5.60444 9.99976 6C9.99918 6.53025 9.78828 7.03863 9.41333 7.41357C9.03838 7.78852 8.53001 7.99942 7.99976 8Z" fill="#626262"/>
</svg>
