<svg width="16" height="16" viewBox="0 0 16 16" fill="none" xmlns="http://www.w3.org/2000/svg">
<path d="M13.2498 2.49963H2.74976C2.28578 2.50013 1.84095 2.68466 1.51287 3.01275C1.18479 3.34083 1.00025 3.78566 0.999756 4.24963V11.7496C1.00025 12.2136 1.18479 12.6584 1.51287 12.9865C1.84095 13.3146 2.28578 13.4991 2.74976 13.4996H13.2498C13.7137 13.4991 14.1586 13.3146 14.4866 12.9865C14.8147 12.6584 14.9993 12.2136 14.9998 11.7496V4.24963C14.9993 3.78566 14.8147 3.34083 14.4866 3.01275C14.1586 2.68466 13.7137 2.50013 13.2498 2.49963ZM12.8066 5.39432L8.30663 8.89432C8.21888 8.96254 8.1109 8.99957 7.99976 8.99957C7.88861 8.99957 7.78063 8.96254 7.69288 8.89432L3.19288 5.39432C3.14001 5.3544 3.0956 5.30436 3.06224 5.24712C3.02887 5.18988 3.00721 5.12658 2.99852 5.0609C2.98983 4.99522 2.99428 4.92847 3.01161 4.86452C3.02894 4.80058 3.05881 4.74071 3.09947 4.68841C3.14014 4.63611 3.1908 4.59241 3.2485 4.55985C3.3062 4.52729 3.3698 4.50653 3.43559 4.49876C3.50139 4.491 3.56807 4.49638 3.63177 4.51461C3.69547 4.53284 3.7549 4.56355 3.80663 4.60495L7.99976 7.8662L12.1929 4.60495C12.2977 4.52577 12.4295 4.49104 12.5598 4.50827C12.69 4.52551 12.8083 4.59332 12.8889 4.69705C12.9696 4.80077 13.0062 4.93208 12.9908 5.06256C12.9754 5.19304 12.9092 5.31222 12.8066 5.39432Z" fill="#626262"/>
</svg>
