<svg width="50" height="50" viewBox="0 0 50 50" fill="none" xmlns="http://www.w3.org/2000/svg">
<path fill-rule="evenodd" clip-rule="evenodd" d="M10.2333 17.262C10.6238 16.8715 11.257 16.8715 11.6475 17.262L25.0029 30.6174L38.3583 17.262C38.7488 16.8715 39.382 16.8715 39.7725 17.262C40.1631 17.6525 40.1631 18.2857 39.7725 18.6762L25.71 32.7387C25.3195 33.1292 24.6863 33.1292 24.2958 32.7387L10.2333 18.6762C9.8428 18.2857 9.8428 17.6525 10.2333 17.262Z" fill="#191919"/>
<path opacity="0.8" fill-rule="evenodd" clip-rule="evenodd" d="M16.2541 15.2317C16.5928 14.9228 17.1421 14.9228 17.4809 15.2317L25 22.0899L32.5191 15.2317C32.8579 14.9228 33.4072 14.9228 33.7459 15.2317C34.0847 15.5407 34.0847 16.0417 33.7459 16.3507L25.6134 23.7683C25.2746 24.0772 24.7254 24.0772 24.3866 23.7683L16.2541 16.3507C15.9153 16.0417 15.9153 15.5407 16.2541 15.2317Z" fill="#5BC858"/>
</svg>
