<svg width="567" height="647" viewBox="0 0 567 647" fill="none" xmlns="http://www.w3.org/2000/svg">
<path fill-rule="evenodd" clip-rule="evenodd" d="M0 531.633V0.221313H281.54C336.687 0.221313 390.867 17.1453 432.953 50.9932C469.234 80.2255 501 124.843 501 191.462C501 346.701 358.617 393.78 300.568 397.934V321.007C300.568 321.007 426.987 306.391 424.084 190.077C421.271 77.338 311.96 77.6316 265.599 77.7561C264.129 77.76 262.722 77.7638 261.384 77.7638H74.0132V531.633H0ZM150.3 121.032H225.285V465.018H375.916V419.154H450.9V531.788H150.3V121.032ZM567 531H451V647H567V531Z" fill="#67CC65"/>
</svg>
