<svg width="157" height="35" viewBox="0 0 157 35" fill="none" xmlns="http://www.w3.org/2000/svg">
<g clip-path="url(#clip0_5_194)">
<path d="M40.3946 24.3123V34.0953H36.5024V10.012H40.9129C43.0742 10.012 44.7073 10.1489 45.8124 10.4318C46.9272 10.7147 47.9052 11.244 48.756 12.0197C50.2424 13.3703 50.9759 15.0769 50.9759 17.1393C50.9759 19.3478 50.1838 21.0908 48.5995 22.3776C47.0152 23.6644 44.8833 24.3123 42.194 24.3123H40.3848H40.3946ZM40.3946 20.9448H41.8517C45.431 20.9448 47.2206 19.6581 47.2206 17.0937C47.2206 14.5293 45.3723 13.3703 41.6855 13.3703H40.3946V20.954V20.9448Z" fill="#191919" stroke="#191919" stroke-width="0.3"/>
<path d="M53.8706 18.9312H57.4524V20.289C58.113 19.6146 58.6898 19.1499 59.2015 18.9038C59.7224 18.6487 60.3365 18.512 61.0435 18.512C61.9832 18.512 62.9693 18.8127 64.002 19.4142L62.3646 22.622C61.6855 22.1481 61.0249 21.902 60.3737 21.902C58.42 21.902 57.4524 23.3419 57.4524 26.2307V34.0953H53.8706V18.9221V18.9312Z" fill="#191919" stroke="#191919" stroke-width="0.3"/>
<path d="M64.002 26.1973C64.002 24.0698 64.7733 22.2527 66.3161 20.7546C67.8588 19.2566 69.7424 18.512 71.9579 18.512C74.1733 18.512 76.0748 19.2654 77.6266 20.7723C79.1603 22.2793 79.9227 24.123 79.9227 26.3125C79.9227 28.502 79.1514 30.3812 77.6086 31.8704C76.0569 33.3507 74.1464 34.0953 71.8951 34.0953C69.6437 34.0953 67.7781 33.3418 66.2712 31.8261C64.7554 30.328 64.002 28.4488 64.002 26.1884V26.1973ZM67.5269 26.2593C67.5269 27.7308 67.9216 28.9009 68.7199 29.7607C69.5361 30.6294 70.6124 31.0637 71.9579 31.0637C73.3033 31.0637 74.3886 30.6382 75.1958 29.7784C76.0031 28.9186 76.4067 27.7751 76.4067 26.3391C76.4067 24.9031 76.0031 23.7596 75.1958 22.8998C74.3796 22.0311 73.3033 21.5967 71.9579 21.5967C70.6124 21.5967 69.572 22.0311 68.7558 22.8998C67.9395 23.7685 67.5269 24.8854 67.5269 26.2593Z" fill="#191919" stroke="#191919" stroke-width="0.3"/>
<path d="M97.2909 19.5662V24.0933C96.4578 23.1453 95.7194 22.4897 95.0567 22.1442C94.413 21.781 93.6462 21.595 92.7753 21.595C91.4026 21.595 90.2666 22.0468 89.3578 22.9416C88.449 23.8363 87.9946 24.9615 87.9946 26.3169C87.9946 27.6724 88.4301 28.8329 89.301 29.7277C90.1814 30.6136 91.3079 31.0566 92.6806 31.0566C93.5515 31.0566 94.3278 30.8794 94.9905 30.525C95.6342 30.1795 96.401 29.5151 97.2719 28.5229V33.0233C95.7951 33.7409 94.3183 34.0953 92.8415 34.0953C90.3991 34.0953 88.3638 33.36 86.7261 31.8805C85.0884 30.401 84.2648 28.5583 84.2648 26.3524C84.2648 24.1464 85.0978 22.2948 86.7545 20.7799C88.4112 19.265 90.4559 18.512 92.8699 18.512C94.4225 18.512 95.8898 18.8575 97.2719 19.5573L97.2909 19.5662Z" fill="#191919" stroke="#191919" stroke-width="0.3"/>
<path d="M100.186 12.2964C100.186 11.6767 100.394 11.1403 100.819 10.6871C101.245 10.2339 101.757 10.012 102.348 10.012C102.938 10.012 103.468 10.2432 103.894 10.6871C104.319 11.131 104.528 11.6767 104.528 12.3149C104.528 12.953 104.31 13.5079 103.894 13.9611C103.477 14.4143 102.964 14.6363 102.365 14.6363C101.766 14.6363 101.245 14.4143 100.819 13.9611C100.394 13.5079 100.186 12.953 100.186 12.3056V12.2964ZM104.033 18.6964V34.0953H100.689V18.6964H104.033Z" fill="#191919" stroke="#191919" stroke-width="0.3"/>
<path d="M119.709 7.18776H123.343V33.655H119.709V32.0593C118.278 33.4166 116.668 34.0953 114.87 34.0953C112.723 34.0953 110.943 33.3341 109.531 31.8025C108.128 30.2435 107.422 28.2992 107.422 25.9698C107.422 23.6404 108.128 21.7879 109.531 20.2655C110.925 18.734 112.676 17.9636 114.794 17.9636C116.63 17.9636 118.268 18.6973 119.718 20.1554V7.17859L119.709 7.18776ZM111.113 25.979C111.113 27.4463 111.518 28.6294 112.318 29.5556C113.147 30.4819 114.182 30.9496 115.444 30.9496C116.781 30.9496 117.863 30.5002 118.692 29.6015C119.521 28.6752 119.935 27.4922 119.935 26.0615C119.935 24.6309 119.521 23.4478 118.692 22.5215C117.863 21.6136 116.79 21.1551 115.472 21.1551C114.229 21.1551 113.184 21.6136 112.346 22.5307C111.518 23.457 111.104 24.6125 111.104 25.979H111.113Z" fill="#191919" stroke="#191919" stroke-width="0.3"/>
<path d="M131.218 18.512V27.2048C131.218 29.717 132.216 30.9732 134.203 30.9732C136.189 30.9732 137.187 29.717 137.187 27.2048V18.512H140.711V27.2867C140.711 28.4973 140.556 29.5441 140.253 30.427C139.961 31.2189 139.457 31.9289 138.734 32.557C137.544 33.5856 136.033 34.0953 134.194 34.0953C132.354 34.0953 130.861 33.5856 129.671 32.557C128.939 31.9289 128.427 31.2098 128.124 30.427C127.832 29.7261 127.685 28.6703 127.685 27.2867V18.512H131.209H131.218Z" fill="#191919" stroke="#191919" stroke-width="0.3"/>
<path d="M155.589 21.4211L152.49 22.92C152.002 22.0065 151.398 21.5541 150.677 21.5541C150.336 21.5541 150.034 21.6606 149.79 21.8646C149.546 22.0685 149.42 22.3346 149.42 22.6628C149.42 23.2304 150.141 23.7892 151.583 24.348C153.572 25.1284 154.907 25.8469 155.599 26.5032C156.291 27.1595 156.632 28.0464 156.632 29.1551C156.632 30.5831 156.057 31.7715 154.897 32.7294C153.776 33.643 152.422 34.0953 150.833 34.0953C148.114 34.0953 146.184 32.8891 145.053 30.4766L148.25 29.1285C148.698 29.838 149.03 30.2815 149.264 30.4766C149.722 30.858 150.268 31.0531 150.891 31.0531C152.158 31.0531 152.792 30.5298 152.792 29.4744C152.792 28.8713 152.305 28.3037 151.33 27.7804C150.95 27.6118 150.579 27.4433 150.199 27.2837C149.819 27.124 149.439 26.9555 149.049 26.787C147.958 26.2992 147.197 25.8203 146.749 25.3324C146.184 24.7205 145.901 23.9222 145.901 22.9555C145.901 21.6694 146.388 20.614 147.353 19.7714C148.338 18.9288 149.537 18.512 150.95 18.512C153.026 18.512 154.566 19.4876 155.579 21.4388L155.589 21.4211Z" fill="#191919" stroke="#191919" stroke-width="0.3"/>
<path d="M24.6431 21.9796C22.2713 23.7597 19.5085 24.5127 17.8351 24.6677V20.4503C17.8856 20.4423 17.9497 20.4316 18.0258 20.4176C18.2288 20.3802 18.5177 20.3191 18.8634 20.2244C19.5543 20.0351 20.4754 19.7104 21.3926 19.1684C23.2318 18.0815 25.0571 16.1173 24.9716 12.6399C24.9291 10.9093 24.4703 9.61412 23.7565 8.64841C23.0432 7.68348 22.0835 7.05857 21.0568 6.65405C19.1379 5.89799 16.9617 5.90422 15.6671 5.90794C15.5811 5.90818 15.499 5.90842 15.4212 5.90842H4.5952H4.4452V6.05842V32.5196H0.468848V1.66196H16.5857C19.7418 1.66196 22.8375 2.64489 25.2392 4.60502C27.3088 6.29719 29.1157 8.87347 29.1157 12.7247C29.1157 17.2226 27.0862 20.1459 24.6431 21.9796Z" fill="#191919" stroke="#191919" stroke-width="0.3"/>
<path d="M22.1886 28.7639V26.2247H26.2211V32.5287H9.15293V8.74534H13.1854V28.7639V28.9139H13.3354H22.0386H22.1886V28.7639Z" fill="#5BC858" stroke="#5BC858" stroke-width="0.3"/>
</g>
<defs>
<clipPath id="clip0_5_194">
<rect width="157" height="34" fill="white" transform="translate(0 0.5)"/>
</clipPath>
</defs>
</svg>
