<svg width="289" height="315" viewBox="0 0 289 315" fill="none" xmlns="http://www.w3.org/2000/svg">
<path opacity="0.3" d="M43.2555 46.3615H43.1055V46.5115V313.951H0.834937V0.944556H162.62C194.308 0.944556 225.436 10.9129 249.613 30.844C270.454 48.0565 288.698 74.3223 288.698 113.545C288.698 159.255 268.25 189.033 243.636 207.694C219.094 226.3 190.408 233.855 173.714 235.114V190.054C173.715 190.053 173.717 190.053 173.718 190.053C173.74 190.05 173.765 190.047 173.792 190.043C173.931 190.025 174.135 189.996 174.402 189.956C174.936 189.876 175.718 189.75 176.713 189.565C178.701 189.194 181.539 188.589 184.939 187.648C191.739 185.766 200.789 182.541 209.789 177.17C227.793 166.423 245.594 147.079 244.758 112.725C244.34 95.5557 239.84 82.8143 232.924 73.3633C226.008 63.913 216.685 57.7638 206.637 53.7649C187.785 46.2619 166.361 46.3212 153.453 46.3569C152.607 46.3593 151.797 46.3615 151.027 46.3615H43.2555Z" fill="#85D782" stroke="#85D782" stroke-width="0.3"/>
<path opacity="0.3" d="M217.052 274.826V247.936H259.881V314.042H87.2839V72.1712H130.113V274.826V274.976H130.263H216.902H217.052V274.826Z" fill="#85D782" stroke="#85D782" stroke-width="0.3"/>
</svg>
